<?xml version="1.0" encoding="UTF-8" standalone="no"?>
<svg
   xmlns:dc="http://purl.org/dc/elements/1.1/"
   xmlns:cc="http://creativecommons.org/ns#"
   xmlns:rdf="http://www.w3.org/1999/02/22-rdf-syntax-ns#"
   xmlns:svg="http://www.w3.org/2000/svg"
   xmlns="http://www.w3.org/2000/svg"
   xmlns:sodipodi="http://sodipodi.sourceforge.net/DTD/sodipodi-0.dtd"
   xmlns:inkscape="http://www.inkscape.org/namespaces/inkscape"
   height="479pt"
   viewBox="-87 0 479 479.80315"
   width="479pt"
   version="1.1"
   id="svg859"
   sodipodi:docname="GotaPerfecta.svg"
   inkscape:version="1.0.2-2 (e86c870879, 2021-01-15)">
  <metadata
     id="metadata865">
    <rdf:RDF>
      <cc:Work
         rdf:about="">
        <dc:format>image/svg+xml</dc:format>
        <dc:type
           rdf:resource="http://purl.org/dc/dcmitype/StillImage" />
        <dc:title></dc:title>
      </cc:Work>
    </rdf:RDF>
  </metadata>
  <defs
     id="defs863" />
  <sodipodi:namedview
     pagecolor="#ffffff"
     bordercolor="#666666"
     borderopacity="1"
     objecttolerance="10"
     gridtolerance="10"
     guidetolerance="10"
     inkscape:pageopacity="0"
     inkscape:pageshadow="2"
     inkscape:window-width="1920"
     inkscape:window-height="1017"
     id="namedview861"
     showgrid="false"
     inkscape:zoom="0.64744259"
     inkscape:cx="319.33333"
     inkscape:cy="319.33333"
     inkscape:window-x="-8"
     inkscape:window-y="-8"
     inkscape:window-maximized="1"
     inkscape:current-layer="svg859" />
  <path
     d="m 266.23333,203.14451 c -2.074,21.78675 25.05153,82.1279 28.86856,118.06853 2.99188,28.17114 -6.21298,58.64255 -16.45407,79.92477 -26.01958,54.07184 -84.29479,70.66688 -126.24548,70.66688 -43.03858,0 -93.470485,-21.78013 -121.105502,-73.98758 -10.269624,-19.40113 -21.159365,-44.35562 -21.028167,-69.45023 0.16812,-32.15687 14.37852,-47.13864 14.37852,-68.3654 0,-52.73941 -11.893184,-21.7304 21.430148,-28.95254 18.0632,-3.91482 29.293514,-0.24095 44.843192,-6.59214 19.469549,-7.95224 52.199049,-6.62946 52.199049,-6.62946 0,0 68.91032,1.62738 103.92234,8.19403 36.93647,6.9276 19.19141,-22.87686 19.19141,-22.87686 z"
     fill="#60a2d7"
     id="path855"
     sodipodi:nodetypes="ssssssssscss"
     style="fill:#00aad4" />
  <path
     d="m152.402344 479.804688c83.816406 0 152-70.496094 152-157.144532 0-116.105468-139.570313-311.28125-145.503906-319.527344-1.578126-1.980468-3.96875-3.132812-6.496094-3.132812-2.53125 0-4.921875 1.152344-6.496094 3.132812-5.9375 8.246094-145.503906 203.421876-145.503906 319.527344 0 86.648438 68.183594 157.144532 152 157.144532zm0-458.042969c27.886718 40.496093 136 203.730469 136 300.898437 0 77.824219-61.007813 141.144532-136 141.144532-74.992188 0-136-63.320313-136-141.144532 0-97.128906 108.109375-260.394531 136-300.898437zm0 0"
     id="path857" />
</svg>
