<?xml version="1.0" encoding="UTF-8" standalone="no"?>
<svg
   xmlns:dc="http://purl.org/dc/elements/1.1/"
   xmlns:cc="http://creativecommons.org/ns#"
   xmlns:rdf="http://www.w3.org/1999/02/22-rdf-syntax-ns#"
   xmlns:svg="http://www.w3.org/2000/svg"
   xmlns="http://www.w3.org/2000/svg"
   xmlns:sodipodi="http://sodipodi.sourceforge.net/DTD/sodipodi-0.dtd"
   xmlns:inkscape="http://www.inkscape.org/namespaces/inkscape"
   height="479pt"
   viewBox="-87 0 479 479.80315"
   width="479pt"
   version="1.1"
   id="svg893"
   sodipodi:docname="GotaExceso.svg"
   inkscape:version="1.0.2-2 (e86c870879, 2021-01-15)">
  <metadata
     id="metadata899">
    <rdf:RDF>
      <cc:Work
         rdf:about="">
        <dc:format>image/svg+xml</dc:format>
        <dc:type
           rdf:resource="http://purl.org/dc/dcmitype/StillImage" />
        <dc:title></dc:title>
      </cc:Work>
    </rdf:RDF>
  </metadata>
  <defs
     id="defs897" />
  <sodipodi:namedview
     pagecolor="#ffffff"
     bordercolor="#666666"
     borderopacity="1"
     objecttolerance="10"
     gridtolerance="10"
     guidetolerance="10"
     inkscape:pageopacity="0"
     inkscape:pageshadow="2"
     inkscape:window-width="1920"
     inkscape:window-height="1017"
     id="namedview895"
     showgrid="false"
     inkscape:zoom="0.66544885"
     inkscape:cx="319.33333"
     inkscape:cy="319.33333"
     inkscape:window-x="-8"
     inkscape:window-y="-8"
     inkscape:window-maximized="1"
     inkscape:current-layer="svg893" />
  <path
     d="m296.402344 322.660156c0 82.367188-64.472656 149.144532-144 149.144532s-144-66.777344-144-149.144532c0-114.855468 144-314.855468 144-314.855468s144 200 144 314.855468zm0 0"
     fill="#60a2d7"
     id="path889"
     style="fill:#0055d4" />
  <path
     d="m152.402344 479.804688c83.816406 0 152-70.496094 152-157.144532 0-116.105468-139.570313-311.28125-145.503906-319.527344-1.578126-1.980468-3.96875-3.132812-6.496094-3.132812-2.53125 0-4.921875 1.152344-6.496094 3.132812-5.9375 8.246094-145.503906 203.421876-145.503906 319.527344 0 86.648438 68.183594 157.144532 152 157.144532zm0-458.042969c27.886718 40.496093 136 203.730469 136 300.898437 0 77.824219-61.007813 141.144532-136 141.144532-74.992188 0-136-63.320313-136-141.144532 0-97.128906 108.109375-260.394531 136-300.898437zm0 0"
     id="path891" />
</svg>
