<svg width="512" height="512" viewBox="0 0 512 512" fill="none" xmlns="http://www.w3.org/2000/svg">
<g id="brote 1" clip-path="url(#clip0)">
<g id="hojas">
<path id="hojaderecha" d="M479.399 239.769C444.389 274.779 381.479 277.021 332.767 267.208C329.228 266.517 326.491 265.835 320.105 264.371C286.938 120.774 357.259 46.5812 503.992 80.4843C516.447 132.397 516.975 202.191 479.399 239.769Z" fill="#00AA95"/>
<path id="hojaizquierda" d="M191.899 264.371C185.453 265.855 182.726 266.527 179.137 267.228C130.265 276.917 67.7089 274.873 32.6048 239.769C-5.01972 202.144 -4.42321 132.213 8.01136 80.4843C60.235 68.4468 129.242 67.0652 167.296 105.077C205.268 143.048 203.948 212.107 191.899 264.371V264.371Z" fill="#00CC76"/>
<path id="hojaenmedio" d="M351.184 130.03C351.184 183.643 301.577 231.521 255.942 260.06C199.179 224.26 145.466 166.754 164.851 102.841C177.691 60.3302 218.317 23.5759 255.942 0C301.351 28.0011 351.184 76.6626 351.184 130.03Z" fill="#A5E887"/>
<path id="hojaenmediomitad" d="M351.184 130.03C351.184 183.768 301.348 231.664 255.942 260.06C254.053 258.869 254.776 259.323 252.794 258.085V2.00514C253.596 1.48381 254.398 0.972514 255.19 0.471241C256.136 -0.122266 255.675 -0.168383 257.285 0.842183C302.203 29.2784 351.184 76.8161 351.184 130.03V130.03Z" fill="#00CC76"/>
</g>
<g id="tallos">
<path id="talloizquierda" d="M245.495 331.331C163.015 251.654 191.74 279.401 125.32 215.247H15.1605C10.4886 205.943 7.06994 195.797 4.71396 185.17H94.1811L4.34302 98.3898C5.39569 92.2342 6.62882 86.239 8.01233 80.4844C13.6667 79.1811 19.5115 78.0081 25.4867 76.9955L104.557 153.379V75.5619C115.064 77.3163 125.19 80.0332 134.634 83.873V182.433C231.292 275.802 238.719 282.975 255.942 299.611L245.495 331.331Z" fill="#A5E887"/>
<path id="talloderecha" d="M417.703 185.17H507.29C504.934 195.797 501.515 205.943 496.854 215.247H386.564C320.508 279.05 348.47 252.039 267.18 330.569V288.753C336.033 222.243 307.036 250.253 377.25 182.433V83.9231C386.694 80.0633 396.82 77.3465 407.326 75.582V153.38L486.417 76.9755C492.432 77.9981 498.307 79.1711 503.992 80.4844C505.365 86.209 506.598 92.1641 507.641 98.2896L417.703 185.17Z" fill="#00CC76"/>
<path id="talloenmedio" d="M270.726 436H240.584C240.584 423.479 240.584 211.193 240.584 197.862C181.074 159.664 193.854 167.87 176 156.403C183.083 141.674 179.858 148.371 190.629 125.97L240.584 158.028V11.561C248.035 5.45699 255.513 -0.0667106 255.715 0.000609029C256.071 0.10391 264.512 6.46098 270.726 11.561V115.651L310.915 80.8306L329 108.687L270.726 159.177V436Z" fill="#00CC76"/>
<path id="talloenmediooscuro" d="M270.952 368H256V0C256.354 0.0871899 264.762 5.4528 270.952 9.75743V97.6135L310.985 68.2236L329 91.7355L270.952 134.351V368Z" fill="#00AA95"/>
</g>
<g id="tierra">
<path id="tierra_2" d="M455.448 488.942C455.448 494.846 455.072 497.193 453.443 512.001H58.4404L56.9666 498.607C49.6431 431.874 117.338 382.295 178.375 408.899C210.742 346.019 301.076 345.894 333.509 408.899C390.472 384.071 455.448 425.89 455.448 488.942V488.942Z" fill="#C47E4E"/>
<path id="tierraoscura" d="M455.448 488.941C455.448 494.845 455.072 497.192 453.443 512H255.942V361.618C289.116 361.618 318.811 380.346 333.509 408.898C390.472 384.07 455.448 425.889 455.448 488.941V488.941Z" fill="#A05F4B"/>
</g>
</g>
<defs>
<clipPath id="clip0">
<rect width="512" height="512" fill="white"/>
</clipPath>
</defs>
</svg>
