<svg width="480" height="480" viewBox="0 0 480 480" fill="none" xmlns="http://www.w3.org/2000/svg">
<path d="M376 240C376 315.109 315.109 376 240 376C164.891 376 104 315.109 104 240C104 164.891 164.891 104 240 104C315.109 104 376 164.891 376 240Z" fill="#FDA520"/>
<path d="M240 480C235.582 480 232 476.418 232 472V408C232 403.582 235.582 400 240 400C244.418 400 248 403.582 248 408V472C248 476.418 244.418 480 240 480Z" fill="#FDA520"/>
<path d="M240 80C235.582 80 232 76.418 232 72V8C232 3.58203 235.582 0 240 0C244.418 0 248 3.58203 248 8V72C248 76.418 244.418 80 240 80Z" fill="#FDA520"/>
<path d="M120 120L72 72Z" fill="#FDA520"/>
<path d="M120 128C117.879 128 115.844 127.156 114.344 125.656L66.3438 77.6562C63.3126 74.5156 63.3555 69.5273 66.4415 66.4414C69.5274 63.3555 74.5157 63.3125 77.6563 66.3437L125.656 114.344C127.941 116.633 128.629 120.074 127.391 123.062C126.152 126.051 123.234 128 120 128Z" fill="#FDA520"/>
<path d="M408 408L360 360Z" fill="#FDA520"/>
<path d="M408 416C405.879 416 403.844 415.156 402.344 413.656L354.344 365.656C351.313 362.516 351.356 357.527 354.441 354.441C357.527 351.355 362.516 351.312 365.656 354.344L413.656 402.344C415.941 404.633 416.629 408.074 415.391 411.062C414.152 414.051 411.234 416 408 416V416Z" fill="#FDA520"/>
<path d="M360 120L408 72Z" fill="#FDA520"/>
<path d="M360 128C356.766 128 353.848 126.051 352.609 123.062C351.371 120.074 352.059 116.633 354.344 114.344L402.344 66.3437C405.484 63.3125 410.473 63.3555 413.559 66.4414C416.645 69.5273 416.688 74.5156 413.656 77.6562L365.656 125.656C364.156 127.156 362.121 128 360 128V128Z" fill="#FDA520"/>
<path d="M472 248H408C403.582 248 400 244.418 400 240C400 235.582 403.582 232 408 232H472C476.418 232 480 235.582 480 240C480 244.418 476.418 248 472 248Z" fill="#FDA520"/>
<path d="M72 248H8C3.58203 248 0 244.418 0 240C0 235.582 3.58203 232 8 232H72C76.418 232 80 235.582 80 240C80 244.418 76.418 248 72 248Z" fill="#FDA520"/>
<path d="M72 408L120 360Z" fill="#FDA520"/>
<path d="M72 416C68.7656 416 65.8477 414.051 64.6094 411.062C63.3711 408.074 64.0586 404.633 66.3438 402.344L114.344 354.344C117.484 351.312 122.473 351.355 125.559 354.441C128.645 357.527 128.688 362.516 125.656 365.656L77.6563 413.656C76.1563 415.156 74.1211 416 72 416Z" fill="#FDA520"/>
<path d="M240 384C319.527 384 384 319.527 384 240C384 160.473 319.527 96 240 96C160.473 96 96 160.473 96 240C96.0938 319.492 160.508 383.906 240 384ZM240 112C310.691 112 368 169.309 368 240C368 310.691 310.691 368 240 368C169.309 368 112 310.691 112 240C112.082 169.344 169.344 112.082 240 112Z" fill="black"/>
<path d="M240 480C244.418 480 248 476.418 248 472V408C248 403.582 244.418 400 240 400C235.582 400 232 403.582 232 408V472C232 476.418 235.582 480 240 480Z" fill="black"/>
<path d="M240 80C244.418 80 248 76.418 248 72V8C248 3.58203 244.418 0 240 0C235.582 0 232 3.58203 232 8V72C232 76.418 235.582 80 240 80Z" fill="black"/>
<path d="M114.344 125.656C117.484 128.687 122.473 128.645 125.559 125.559C128.645 122.473 128.688 117.484 125.656 114.344L77.6563 66.3437C74.5157 63.3125 69.5274 63.3555 66.4415 66.4414C63.3555 69.5273 63.3126 74.5156 66.3438 77.6562L114.344 125.656Z" fill="black"/>
<path d="M365.656 354.344C362.516 351.312 357.527 351.355 354.441 354.441C351.356 357.527 351.313 362.516 354.344 365.656L402.344 413.656C405.484 416.687 410.473 416.645 413.559 413.559C416.645 410.473 416.688 405.484 413.656 402.344L365.656 354.344Z" fill="black"/>
<path d="M360 128C362.121 128 364.156 127.156 365.656 125.656L413.656 77.6562C416.688 74.5156 416.645 69.5273 413.559 66.4414C410.473 63.3555 405.484 63.3125 402.344 66.3437L354.344 114.344C352.059 116.633 351.371 120.074 352.609 123.062C353.848 126.051 356.766 128 360 128Z" fill="black"/>
<path d="M472 232H408C403.582 232 400 235.582 400 240C400 244.418 403.582 248 408 248H472C476.418 248 480 244.418 480 240C480 235.582 476.418 232 472 232Z" fill="black"/>
<path d="M8 248H72C76.418 248 80 244.418 80 240C80 235.582 76.418 232 72 232H8C3.58203 232 0 235.582 0 240C0 244.418 3.58203 248 8 248Z" fill="black"/>
<path d="M77.6562 413.656L125.656 365.656C128.687 362.516 128.645 357.527 125.559 354.441C122.473 351.355 117.484 351.312 114.344 354.344L66.3437 402.344C64.2656 404.352 63.4297 407.328 64.164 410.125C64.8945 412.922 67.0781 415.105 69.875 415.836C72.6718 416.57 75.6484 415.734 77.6562 413.656V413.656Z" fill="black"/>
</svg>
